<svg width="16" height="16" viewBox="0 0 16 16" fill="none" xmlns="http://www.w3.org/2000/svg">
    <path
        d="M7.82409 1C5.64154 1 4.22789 1.89422 3.11804 3.48899C2.9167 3.77829 2.97878 4.17494 3.25962 4.38789L4.43918 5.28228C4.72281 5.49734 5.12638 5.44705 5.34844 5.16886C6.03337 4.31078 6.54145 3.81673 7.61133 3.81673C8.45253 3.81673 9.49301 4.35811 9.49301 5.17383C9.49301 5.79049 8.98396 6.10718 8.15336 6.57285C7.18476 7.11589 5.903 7.79172 5.903 9.48236V9.75C5.903 10.1124 6.19681 10.4062 6.55925 10.4062H8.54088C8.90332 10.4062 9.19713 10.1124 9.19713 9.75V9.59214C9.19713 8.42019 12.6224 8.37138 12.6224 5.2C12.6225 2.81169 10.1451 1 7.82409 1ZM7.55008 11.2118C6.50565 11.2118 5.65595 12.0615 5.65595 13.1059C5.65595 14.1503 6.50565 15 7.55008 15C8.5945 15 9.4442 14.1503 9.4442 13.1059C9.4442 12.0614 8.5945 11.2118 7.55008 11.2118Z"
        fill="currentColor" />
</svg>