<svg width="16" height="16" viewBox="0 0 16 16" fill="none" xmlns="http://www.w3.org/2000/svg">
<path d="M3 15C2.44772 15 2 14.5523 2 14V2C2 1.62934 2.20167 1.30578 2.50126 1.13305C2.64806 1.04842 2.81838 1 3 1H13C13.5523 1 14 1.44772 14 2C14 2.55228 13.5523 3 13 3L4 3L4 14C4 14.5523 3.55228 15 3 15Z" fill="#F5F7F6"/>
<path fill-rule="evenodd" clip-rule="evenodd" d="M5 5C5 4.44772 5.44772 4 6 4H13C13.5523 4 14 4.44772 14 5V14C14 14.5523 13.5523 15 13 15H6C5.44772 15 5 14.5523 5 14V5ZM7 13V6H12V13H7Z" fill="#F5F7F6"/>
</svg>
