<svg width="16" height="16" viewBox="0 0 16 16" fill="none" xmlns="http://www.w3.org/2000/svg">
    <path
        d="M13.8656 2.80307L12.4469 1.38443C12.2008 1.13828 11.8669 1 11.5189 1H6.8125C6.08762 1 5.5 1.58762 5.5 2.3125V3.625H3.3125C2.58762 3.625 2 4.21262 2 4.9375V13.6875C2 14.4124 2.58762 15 3.3125 15H9.4375C10.1624 15 10.75 14.4124 10.75 13.6875V12.375H12.9375C13.6624 12.375 14.25 11.7874 14.25 11.0625V3.73115C14.25 3.38305 14.1117 3.04921 13.8656 2.80307ZM11.625 1.88843C11.7019 1.90741 11.7722 1.94707 11.8282 2.00313L13.2468 3.42181C13.3029 3.47781 13.3426 3.54808 13.3615 3.625H11.625V1.88843ZM9.875 13.6875C9.875 13.9287 9.67873 14.125 9.4375 14.125H3.3125C3.07127 14.125 2.875 13.9287 2.875 13.6875V4.9375C2.875 4.69627 3.07127 4.5 3.3125 4.5H5.5V11.0625C5.5 11.7874 6.08762 12.375 6.8125 12.375H9.875V13.6875ZM13.375 11.0625C13.375 11.3037 13.1787 11.5 12.9375 11.5H6.8125C6.57127 11.5 6.375 11.3037 6.375 11.0625V2.3125C6.375 2.07127 6.57127 1.875 6.8125 1.875H10.75V3.84375C10.75 4.20469 11.0453 4.5 11.4062 4.5H13.375V11.0625Z"
        fill="currentColor" />
</svg>