<svg width="485" height="482" viewBox="0 0 485 482" fill="none" xmlns="http://www.w3.org/2000/svg">
<path d="M439 242.5C439 351.024 351.024 439 242.5 439C133.976 439 46 351.024 46 242.5C46 133.976 133.976 46 242.5 46C351.024 46 439 133.976 439 242.5Z" fill="currentcolor"/>
<path d="M108.302 386.039C69.9625 350.18 46 299.138 46 242.5C46 198.696 60.3333 158.239 84.5658 125.564L85.5 125C91.1777 122.729 99.4342 129.806 107.067 136.349C112.877 141.329 118.326 146 122 146C122 146 126 146.5 129.5 141C133 135.5 139 130 139 130C139 130 141 128 144.5 125C145.101 124.485 145.642 124.014 146.168 123.558C148.706 121.353 150.873 119.47 157.5 114.5C165.5 108.5 167.686 106.907 173.5 104C181.5 100 186.139 98.8655 195 97C204.5 95 209.9 95 219.5 95C229.5 95 235.382 96.2099 245 98.5C255.5 101 259 102.022 269 107.261C279 112.5 286 117 294 123C302 129 305.24 133.5 310 140.5C315.617 148.761 316.773 152.39 319.5 162C320.981 167.22 321.395 171.44 321.81 175.679C322.213 179.791 322.617 183.921 324 189C324.224 189.823 324.435 190.607 324.637 191.361C326.254 197.382 327.352 201.467 330.5 207.5C334.517 215.197 339.039 219.44 344.248 224.328C346.677 226.607 349.255 229.026 352 232C370.826 252.394 382.178 263.231 403.5 281C411.585 287.738 414.828 290.844 423.742 299.381C424.75 300.347 425.831 301.382 427 302.5C427 302.5 427 302.5 429.076 304.326C432.5 307 437 311.5 441.5 316C443.051 316.776 453.871 326.903 461 336.5C468.5 345 472.5 351 472.5 354.5C471 356 463 355.5 458.5 352.5C455.5 352 425 326.314 421.59 323.481C417.343 319.952 413.442 316.651 409.637 313.431C399.617 304.951 390.261 297.034 377 287C373.486 284.341 370.281 281.882 367.257 279.561C354.514 269.785 344.972 262.463 329 253C326.739 251.66 324.839 250.358 323.05 249.133C319.069 246.406 315.638 244.056 310 242.5C296.324 238.727 286.809 241.97 274.534 246.154C272.295 246.917 269.964 247.711 267.5 248.5C261.415 250.448 257.274 253.5 251.669 257.631C250.147 258.753 248.606 259.889 247 261C242.5 265 241.302 266.381 237 270C235.078 271.617 233.236 274 231 276.5C225.839 282.271 223.986 284.958 219.844 288.896C217.844 290.797 215.66 292.873 213 295.5C210.637 297.833 208.5 300.428 206.5 302.5C202.249 306.903 198.924 309.484 193.5 314C190.302 316.663 188.461 319.296 185.5 321.5C180.846 324.965 177.587 327.5 173.5 331.5C171.153 333.797 165.339 338.143 163.024 340.489C160.367 343.183 157.709 345.878 155 348.5C149.263 354.052 142.641 358.768 136.099 363.427C134.895 364.285 133.693 365.141 132.5 366C130.296 367.587 128.32 368.959 126.501 370.223C119.496 375.089 114.806 378.346 108.302 386.039Z" fill="#fff
"/>
</svg>
