<svg width="16" height="16" viewBox="0 0 16 16" fill="none" xmlns="http://www.w3.org/2000/svg">
    <path fill-rule="evenodd" clip-rule="evenodd"
        d="M10.7071 1.29276C10.3166 0.902242 9.6834 0.902252 9.29288 1.29278C8.90236 1.68331 8.90237 2.31648 9.2929 2.707L11.5859 4.99988H6C5.44771 4.99988 5 5.44759 5 5.99988V11C5 11.5523 5.44771 12 6 12C6.55229 12 7 11.5523 7 11V6.99988H11.5858L9.29289 9.29277C8.90237 9.6833 8.90237 10.3165 9.29289 10.707C9.68342 11.0975 10.3166 11.0975 10.7071 10.707L14.6951 6.71901C14.6992 6.71505 14.7032 6.71105 14.7073 6.70701C15.0978 6.31648 15.0978 5.68331 14.7073 5.2928L10.7071 1.29276Z"
        fill="currentColor" />
    <path
        d="M1 14C1 14.5523 1.44771 15 2 15H14C14.5523 15 15 14.5523 15 14V10C15 9.44772 14.5523 9 14 9C13.4477 9 13 9.44771 13 10V13H3V3L7 3C7.55228 3 8 2.55228 8 2C8 1.44772 7.55228 1 7 1L2 1C1.86193 1 1.73039 1.02798 1.61075 1.07859C1.25184 1.23039 1 1.58579 1 2V14Z"
        fill="currentColor" />
</svg>