<svg width="500" height="500" viewBox="0 0 500 500" fill="none" xmlns="http://www.w3.org/2000/svg">
<path fill-rule="evenodd" clip-rule="evenodd" d="M500 250C500 388.071 388.071 500 250 500C111.929 500 0 388.071 0 250C0 111.929 111.929 0 250 0C388.071 0 500 111.929 500 250ZM325 180C325 221.421 291.421 255 250 255C208.579 255 175 221.421 175 180C175 138.579 208.579 105 250 105C291.421 105 325 138.579 325 180ZM250.5 492C314.289 492 366 440.289 366 376.5C366 312.711 314.289 261 250.5 261C186.711 261 135 312.711 135 376.5C135 440.289 186.711 492 250.5 492Z" fill="#C8E69E"/>
</svg>
