<svg width="500" height="500" viewBox="0 0 500 500" fill="none" xmlns="http://www.w3.org/2000/svg">
<path fill-rule="evenodd" clip-rule="evenodd" d="M250 500C388.071 500 500 388.071 500 250C500 111.929 388.071 0 250 0C111.929 0 0 111.929 0 250C0 388.071 111.929 500 250 500ZM93 209.2C93 175.4 117.938 148 148.699 148H295.993C326.363 148 351.057 174.707 351.68 207.913L389.961 186.59C414.301 173.032 443.603 191.063 444.756 220.306L446.965 276.321C448.205 307.785 416.381 328.328 390.791 312.582L351.692 288.524V290.8C351.692 324.6 326.755 352 295.993 352H148.699C117.938 352 93 324.6 93 290.8V209.2Z" fill="#D2DBD6"/>
</svg>
