<svg width="16" height="16" viewBox="0 0 16 16" fill="none" xmlns="http://www.w3.org/2000/svg">
    <path fill-rule="evenodd" clip-rule="evenodd"
        d="M3.29288 5.2929C2.90236 5.68344 2.90237 6.3166 3.2929 6.70712C3.68344 7.09764 4.3166 7.09763 4.70712 6.7071L7 4.41414V10C7 10.5523 7.44772 11 8 11C8.55228 11 9 10.5523 9 10V4.41421L11.2929 6.70711C11.6834 7.09763 12.3166 7.09763 12.7071 6.70711C13.0976 6.31658 13.0976 5.68342 12.7071 5.29289L8.71914 1.30492C8.71518 1.30083 8.71117 1.29676 8.70713 1.29271C8.3166 0.902197 7.68344 0.902207 7.29292 1.29274L3.29288 5.2929Z"
        fill="currentColor" />
    <path
        d="M2 14C1.44772 14 1 13.5523 1 13V11C1 10.4477 1.44772 10 2 10C2.55228 10 3 10.4477 3 11V12H13V11C13 10.4477 13.4477 10 14 10C14.5523 10 15 10.4477 15 11V13C15 13.5523 14.5523 14 14 14H2Z"
        fill="currentColor" />
</svg>