<svg width="16" height="16" viewBox="0 0 16 16" fill="none" xmlns="http://www.w3.org/2000/svg">
<path d="M7.29284 1.29289L0.92888 7.65685C0.538355 8.04738 0.538355 8.68054 0.92888 9.07107C1.3194 9.46159 1.95257 9.46159 2.34309 9.07107L6.99995 4.41421V12C6.99995 12.5523 7.44766 13 7.99995 13C8.55223 13 8.99995 12.5523 8.99995 12V4.41421L13.6568 9.07107C14.0473 9.46159 14.6805 9.46159 15.071 9.07107C15.4615 8.68054 15.4615 8.04738 15.071 7.65685L8.70705 1.29289C8.31653 0.902369 7.68336 0.902369 7.29284 1.29289Z" fill="white"/>
<path d="M4.99995 12.5C4.99995 12.2239 4.77609 12 4.49995 12C4.22381 12 3.99995 12.2239 3.99995 12.5V14.5C3.99995 14.7761 4.22381 15 4.49995 15H11.4999C11.7761 15 11.9999 14.7761 11.9999 14.5V12.5C11.9999 12.2239 11.7761 12 11.4999 12C11.2238 12 10.9999 12.2239 10.9999 12.5V14H4.99995V12.5Z" fill="white"/>
</svg>
