<svg width="380" height="472" viewBox="0 0 380 472" fill="none" xmlns="http://www.w3.org/2000/svg">
<path d="M0 20C0 8.95431 8.95431 0 20 0H360C371.046 0 380 8.95431 380 20V452C380 463.046 371.046 472 360 472H20C8.9543 472 0 463.046 0 452V20Z" fill="#E88D67"/>
<path d="M340 190C340 272.843 272.843 340 190 340C107.157 340 40 272.843 40 190C40 107.157 107.157 40 190 40C272.843 40 340 107.157 340 190Z" fill="#FEFEFE"/>
<path fill-rule="evenodd" clip-rule="evenodd" d="M340 190C340 272.843 272.843 340 190 340C107.157 340 40 272.843 40 190C40 107.157 107.157 40 190 40C272.843 40 340 107.157 340 190ZM235 148C235 172.853 214.853 193 190 193C165.147 193 145 172.853 145 148C145 123.147 165.147 103 190 103C214.853 103 235 123.147 235 148ZM190.3 335.2C228.573 335.2 259.6 304.173 259.6 265.9C259.6 227.627 228.573 196.6 190.3 196.6C152.027 196.6 121 227.627 121 265.9C121 304.173 152.027 335.2 190.3 335.2Z" fill="#D2DBD6"/>
<path d="M40 392C40 386.477 44.4772 382 50 382H330C335.523 382 340 386.477 340 392V422C340 427.523 335.523 432 330 432H50C44.4772 432 40 427.523 40 422V392Z" fill="#FBFBFB"/>
</svg>
