<svg width="331" height="580" viewBox="0 0 331 580" fill="none" xmlns="http://www.w3.org/2000/svg">
<path fill-rule="evenodd" clip-rule="evenodd" d="M0 48C0 21.4902 21.4903 0 48 0H283C309.51 0 331 21.4902 331 48V532C331 558.51 309.51 580 283 580H48C21.4903 580 0 558.51 0 532V48ZM100 28.5C100 22.1487 105.149 17 111.5 17H219.5C225.851 17 231 22.1487 231 28.5C231 34.8513 225.851 40 219.5 40H111.5C105.149 40 100 34.8513 100 28.5ZM166 543C182.016 543 195 530.016 195 514C195 497.984 182.016 485 166 485C149.984 485 137 497.984 137 514C137 530.016 149.984 543 166 543Z" fill="#42363D"/>
<path d="M33 55H298V426H33V55Z" fill="#EEF7FF"/>
<path d="M43 68.9493C43 66.7682 44.7673 65 46.9474 65H114.053C116.233 65 118 66.7682 118 68.9493V154.255C118 156.436 116.233 158.204 114.053 158.204H46.9474C44.7673 158.204 43 156.436 43 154.255V68.9493Z" fill="#3B60E4"/>
<path d="M110.105 102.519C110.105 118.877 96.8505 132.138 80.5 132.138C64.1495 132.138 50.8947 118.877 50.8947 102.519C50.8947 86.1599 64.1495 72.8986 80.5 72.8986C96.8505 72.8986 110.105 86.1599 110.105 102.519Z" fill="#FEFEFE"/>
<path fill-rule="evenodd" clip-rule="evenodd" d="M110.105 102.519C110.105 118.877 96.8505 132.138 80.5 132.138C64.1495 132.138 50.8947 118.877 50.8947 102.519C50.8947 86.1599 64.1495 72.8986 80.5 72.8986C96.8505 72.8986 110.105 86.1599 110.105 102.519ZM89.3816 94.2249C89.3816 99.1325 85.4051 103.111 80.5 103.111C75.5949 103.111 71.6184 99.1325 71.6184 94.2249C71.6184 89.3174 75.5949 85.339 80.5 85.339C85.4051 85.339 89.3816 89.3174 89.3816 94.2249ZM80.5592 131.191C88.1132 131.191 94.2368 125.064 94.2368 117.506C94.2368 109.948 88.1132 103.822 80.5592 103.822C73.0053 103.822 66.8816 109.948 66.8816 117.506C66.8816 125.064 73.0053 131.191 80.5592 131.191Z" fill="#D2DBD6"/>
<path d="M50.8947 142.407C50.8947 141.316 51.7784 140.432 52.8684 140.432H108.132C109.222 140.432 110.105 141.316 110.105 142.407V148.331C110.105 149.421 109.222 150.305 108.132 150.305H52.8684C51.7784 150.305 50.8947 149.421 50.8947 148.331V142.407Z" fill="#FBFBFB"/>
<path d="M213 68.9493C213 66.7682 214.767 65 216.947 65H284.053C286.233 65 288 66.7682 288 68.9493V154.255C288 156.436 286.233 158.204 284.053 158.204H216.947C214.767 158.204 213 156.436 213 154.255V68.9493Z" fill="#93CA3F"/>
<path d="M280.105 102.519C280.105 118.877 266.851 132.138 250.5 132.138C234.149 132.138 220.895 118.877 220.895 102.519C220.895 86.1599 234.149 72.8986 250.5 72.8986C266.851 72.8986 280.105 86.1599 280.105 102.519Z" fill="#FEFEFE"/>
<path fill-rule="evenodd" clip-rule="evenodd" d="M280.105 102.519C280.105 118.877 266.851 132.138 250.5 132.138C234.149 132.138 220.895 118.877 220.895 102.519C220.895 86.1599 234.149 72.8986 250.5 72.8986C266.851 72.8986 280.105 86.1599 280.105 102.519ZM259.382 94.2249C259.382 99.1325 255.405 103.111 250.5 103.111C245.595 103.111 241.618 99.1325 241.618 94.2249C241.618 89.3174 245.595 85.339 250.5 85.339C255.405 85.339 259.382 89.3174 259.382 94.2249ZM250.559 131.191C258.113 131.191 264.237 125.064 264.237 117.506C264.237 109.948 258.113 103.822 250.559 103.822C243.005 103.822 236.882 109.948 236.882 117.506C236.882 125.064 243.005 131.191 250.559 131.191Z" fill="#D2DBD6"/>
<path d="M220.895 142.407C220.895 141.316 221.778 140.432 222.868 140.432H278.132C279.222 140.432 280.105 141.316 280.105 142.407V148.331C280.105 149.421 279.222 150.305 278.132 150.305H222.868C221.778 150.305 220.895 149.421 220.895 148.331V142.407Z" fill="#FBFBFB"/>
<path d="M43 171.949C43 169.768 44.7673 168 46.9474 168H114.053C116.233 168 118 169.768 118 171.949V257.255C118 259.436 116.233 261.204 114.053 261.204H46.9474C44.7673 261.204 43 259.436 43 257.255V171.949Z" fill="#FAA6FF"/>
<path d="M110.105 205.519C110.105 221.877 96.8505 235.138 80.5 235.138C64.1495 235.138 50.8947 221.877 50.8947 205.519C50.8947 189.16 64.1495 175.899 80.5 175.899C96.8505 175.899 110.105 189.16 110.105 205.519Z" fill="#FEFEFE"/>
<path fill-rule="evenodd" clip-rule="evenodd" d="M110.105 205.519C110.105 221.877 96.8505 235.138 80.5 235.138C64.1495 235.138 50.8947 221.877 50.8947 205.519C50.8947 189.16 64.1495 175.899 80.5 175.899C96.8505 175.899 110.105 189.16 110.105 205.519ZM89.3816 197.225C89.3816 202.132 85.4051 206.111 80.5 206.111C75.5949 206.111 71.6184 202.132 71.6184 197.225C71.6184 192.317 75.5949 188.339 80.5 188.339C85.4051 188.339 89.3816 192.317 89.3816 197.225ZM80.5592 234.191C88.1132 234.191 94.2368 228.064 94.2368 220.506C94.2368 212.948 88.1132 206.822 80.5592 206.822C73.0053 206.822 66.8816 212.948 66.8816 220.506C66.8816 228.064 73.0053 234.191 80.5592 234.191Z" fill="#D2DBD6"/>
<path d="M50.8947 245.407C50.8947 244.316 51.7784 243.432 52.8684 243.432H108.132C109.222 243.432 110.105 244.316 110.105 245.407V251.331C110.105 252.421 109.222 253.305 108.132 253.305H52.8684C51.7784 253.305 50.8947 252.421 50.8947 251.331V245.407Z" fill="#FBFBFB"/>
<path d="M128 68.9493C128 66.7682 129.767 65 131.947 65H199.053C201.233 65 203 66.7682 203 68.9493V154.255C203 156.436 201.233 158.204 199.053 158.204H131.947C129.767 158.204 128 156.436 128 154.255V68.9493Z" fill="#58D4D6"/>
<path d="M195.105 102.519C195.105 118.877 181.851 132.138 165.5 132.138C149.149 132.138 135.895 118.877 135.895 102.519C135.895 86.1599 149.149 72.8986 165.5 72.8986C181.851 72.8986 195.105 86.1599 195.105 102.519Z" fill="#FEFEFE"/>
<path fill-rule="evenodd" clip-rule="evenodd" d="M195.105 102.519C195.105 118.877 181.851 132.138 165.5 132.138C149.149 132.138 135.895 118.877 135.895 102.519C135.895 86.1599 149.149 72.8986 165.5 72.8986C181.851 72.8986 195.105 86.1599 195.105 102.519ZM174.382 94.2249C174.382 99.1325 170.405 103.111 165.5 103.111C160.595 103.111 156.618 99.1325 156.618 94.2249C156.618 89.3174 160.595 85.339 165.5 85.339C170.405 85.339 174.382 89.3174 174.382 94.2249ZM165.559 131.191C173.113 131.191 179.237 125.064 179.237 117.506C179.237 109.948 173.113 103.822 165.559 103.822C158.005 103.822 151.882 109.948 151.882 117.506C151.882 125.064 158.005 131.191 165.559 131.191Z" fill="#D2DBD6"/>
<path d="M135.895 142.407C135.895 141.316 136.778 140.432 137.868 140.432H193.132C194.222 140.432 195.105 141.316 195.105 142.407V148.331C195.105 149.421 194.222 150.305 193.132 150.305H137.868C136.778 150.305 135.895 149.421 135.895 148.331V142.407Z" fill="#FBFBFB"/>
<path d="M213 171.949C213 169.768 214.767 168 216.947 168H284.053C286.233 168 288 169.768 288 171.949V257.255C288 259.436 286.233 261.204 284.053 261.204H216.947C214.767 261.204 213 259.436 213 257.255V171.949Z" fill="#FFAE03"/>
<path d="M280.105 205.519C280.105 221.877 266.851 235.138 250.5 235.138C234.149 235.138 220.895 221.877 220.895 205.519C220.895 189.16 234.149 175.899 250.5 175.899C266.851 175.899 280.105 189.16 280.105 205.519Z" fill="#FEFEFE"/>
<path fill-rule="evenodd" clip-rule="evenodd" d="M280.105 205.519C280.105 221.877 266.851 235.138 250.5 235.138C234.149 235.138 220.895 221.877 220.895 205.519C220.895 189.16 234.149 175.899 250.5 175.899C266.851 175.899 280.105 189.16 280.105 205.519ZM259.382 197.225C259.382 202.132 255.405 206.111 250.5 206.111C245.595 206.111 241.618 202.132 241.618 197.225C241.618 192.317 245.595 188.339 250.5 188.339C255.405 188.339 259.382 192.317 259.382 197.225ZM250.559 234.191C258.113 234.191 264.237 228.064 264.237 220.506C264.237 212.948 258.113 206.822 250.559 206.822C243.005 206.822 236.882 212.948 236.882 220.506C236.882 228.064 243.005 234.191 250.559 234.191Z" fill="#D2DBD6"/>
<path d="M220.895 245.407C220.895 244.316 221.778 243.432 222.868 243.432H278.132C279.222 243.432 280.105 244.316 280.105 245.407V251.331C280.105 252.421 279.222 253.305 278.132 253.305H222.868C221.778 253.305 220.895 252.421 220.895 251.331V245.407Z" fill="#FBFBFB"/>
<path d="M128 171.949C128 169.768 129.767 168 131.947 168H199.053C201.233 168 203 169.768 203 171.949V257.255C203 259.436 201.233 261.204 199.053 261.204H131.947C129.767 261.204 128 259.436 128 257.255V171.949Z" fill="#5BC0EB"/>
<path d="M195.105 205.519C195.105 221.877 181.851 235.138 165.5 235.138C149.149 235.138 135.895 221.877 135.895 205.519C135.895 189.16 149.149 175.899 165.5 175.899C181.851 175.899 195.105 189.16 195.105 205.519Z" fill="#FEFEFE"/>
<path fill-rule="evenodd" clip-rule="evenodd" d="M195.105 205.519C195.105 221.877 181.851 235.138 165.5 235.138C149.149 235.138 135.895 221.877 135.895 205.519C135.895 189.16 149.149 175.899 165.5 175.899C181.851 175.899 195.105 189.16 195.105 205.519ZM174.382 197.225C174.382 202.132 170.405 206.111 165.5 206.111C160.595 206.111 156.618 202.132 156.618 197.225C156.618 192.317 160.595 188.339 165.5 188.339C170.405 188.339 174.382 192.317 174.382 197.225ZM165.559 234.191C173.113 234.191 179.237 228.064 179.237 220.506C179.237 212.948 173.113 206.822 165.559 206.822C158.005 206.822 151.882 212.948 151.882 220.506C151.882 228.064 158.005 234.191 165.559 234.191Z" fill="#D2DBD6"/>
<path d="M135.895 245.407C135.895 244.316 136.778 243.432 137.868 243.432H193.132C194.222 243.432 195.105 244.316 195.105 245.407V251.331C195.105 252.421 194.222 253.305 193.132 253.305H137.868C136.778 253.305 135.895 252.421 135.895 251.331V245.407Z" fill="#FBFBFB"/>
<path d="M43 274.949C43 272.768 44.7673 271 46.9474 271H114.053C116.233 271 118 272.768 118 274.949V360.255C118 362.436 116.233 364.204 114.053 364.204H46.9474C44.7673 364.204 43 362.436 43 360.255V274.949Z" fill="#FFDD4A"/>
<path d="M110.105 308.519C110.105 324.877 96.8505 338.138 80.5 338.138C64.1495 338.138 50.8947 324.877 50.8947 308.519C50.8947 292.16 64.1495 278.899 80.5 278.899C96.8505 278.899 110.105 292.16 110.105 308.519Z" fill="#FEFEFE"/>
<path fill-rule="evenodd" clip-rule="evenodd" d="M110.105 308.519C110.105 324.877 96.8505 338.138 80.5 338.138C64.1495 338.138 50.8947 324.877 50.8947 308.519C50.8947 292.16 64.1495 278.899 80.5 278.899C96.8505 278.899 110.105 292.16 110.105 308.519ZM89.3816 300.225C89.3816 305.132 85.4051 309.111 80.5 309.111C75.5949 309.111 71.6184 305.132 71.6184 300.225C71.6184 295.317 75.5949 291.339 80.5 291.339C85.4051 291.339 89.3816 295.317 89.3816 300.225ZM80.5592 337.191C88.1132 337.191 94.2368 331.064 94.2368 323.506C94.2368 315.948 88.1132 309.822 80.5592 309.822C73.0053 309.822 66.8816 315.948 66.8816 323.506C66.8816 331.064 73.0053 337.191 80.5592 337.191Z" fill="#D2DBD6"/>
<path d="M50.8947 348.407C50.8947 347.316 51.7784 346.432 52.8684 346.432H108.132C109.222 346.432 110.105 347.316 110.105 348.407V354.331C110.105 355.421 109.222 356.305 108.132 356.305H52.8684C51.7784 356.305 50.8947 355.421 50.8947 354.331V348.407Z" fill="#FBFBFB"/>
<path d="M213 274.949C213 272.768 214.767 271 216.947 271H284.053C286.233 271 288 272.768 288 274.949V360.255C288 362.436 286.233 364.204 284.053 364.204H216.947C214.767 364.204 213 362.436 213 360.255V274.949Z" fill="#E55934"/>
<path d="M280.105 308.519C280.105 324.877 266.851 338.138 250.5 338.138C234.149 338.138 220.895 324.877 220.895 308.519C220.895 292.16 234.149 278.899 250.5 278.899C266.851 278.899 280.105 292.16 280.105 308.519Z" fill="#FEFEFE"/>
<path fill-rule="evenodd" clip-rule="evenodd" d="M280.105 308.519C280.105 324.877 266.851 338.138 250.5 338.138C234.149 338.138 220.895 324.877 220.895 308.519C220.895 292.16 234.149 278.899 250.5 278.899C266.851 278.899 280.105 292.16 280.105 308.519ZM259.382 300.225C259.382 305.132 255.405 309.111 250.5 309.111C245.595 309.111 241.618 305.132 241.618 300.225C241.618 295.317 245.595 291.339 250.5 291.339C255.405 291.339 259.382 295.317 259.382 300.225ZM250.559 337.191C258.113 337.191 264.237 331.064 264.237 323.506C264.237 315.948 258.113 309.822 250.559 309.822C243.005 309.822 236.882 315.948 236.882 323.506C236.882 331.064 243.005 337.191 250.559 337.191Z" fill="#D2DBD6"/>
<path d="M220.895 348.407C220.895 347.316 221.778 346.432 222.868 346.432H278.132C279.222 346.432 280.105 347.316 280.105 348.407V354.331C280.105 355.421 279.222 356.305 278.132 356.305H222.868C221.778 356.305 220.895 355.421 220.895 354.331V348.407Z" fill="#FBFBFB"/>
<path d="M128 274.949C128 272.768 129.767 271 131.947 271H199.053C201.233 271 203 272.768 203 274.949V360.255C203 362.436 201.233 364.204 199.053 364.204H131.947C129.767 364.204 128 362.436 128 360.255V274.949Z" fill="#731DD8"/>
<path d="M195.105 308.519C195.105 324.877 181.851 338.138 165.5 338.138C149.149 338.138 135.895 324.877 135.895 308.519C135.895 292.16 149.149 278.899 165.5 278.899C181.851 278.899 195.105 292.16 195.105 308.519Z" fill="#FEFEFE"/>
<path fill-rule="evenodd" clip-rule="evenodd" d="M195.105 308.519C195.105 324.877 181.851 338.138 165.5 338.138C149.149 338.138 135.895 324.877 135.895 308.519C135.895 292.16 149.149 278.899 165.5 278.899C181.851 278.899 195.105 292.16 195.105 308.519ZM174.382 300.225C174.382 305.132 170.405 309.111 165.5 309.111C160.595 309.111 156.618 305.132 156.618 300.225C156.618 295.317 160.595 291.339 165.5 291.339C170.405 291.339 174.382 295.317 174.382 300.225ZM165.559 337.191C173.113 337.191 179.237 331.064 179.237 323.506C179.237 315.948 173.113 309.822 165.559 309.822C158.005 309.822 151.882 315.948 151.882 323.506C151.882 331.064 158.005 337.191 165.559 337.191Z" fill="#D2DBD6"/>
<path d="M135.895 348.407C135.895 347.316 136.778 346.432 137.868 346.432H193.132C194.222 346.432 195.105 347.316 195.105 348.407V354.331C195.105 355.421 194.222 356.305 193.132 356.305H137.868C136.778 356.305 135.895 355.421 135.895 354.331V348.407Z" fill="#FBFBFB"/>
</svg>
